<svg xmlns="http://www.w3.org/2000/svg" width="512" height="512" viewBox="0 0 512 512">
  <defs>
    <linearGradient id="bg" x1="0" y1="0" x2="1" y2="1">
      <stop offset="0%" stop-color="#7c3aed"/>
      <stop offset="100%" stop-color="#a855f7"/>
    </linearGradient>
    <linearGradient id="glow" x1="0.3" y1="0" x2="0.7" y2="1">
      <stop offset="0%" stop-color="#c084fc" stop-opacity="0.4"/>
      <stop offset="100%" stop-color="#a855f7" stop-opacity="0"/>
    </linearGradient>
  </defs>

  <!-- Background circle -->
  <circle cx="256" cy="256" r="240" fill="url(#bg)"/>
  <circle cx="256" cy="256" r="232" fill="url(#glow)"/>

  <!-- Body/shoulders hint -->
  <path d="M185 340 Q200 410 256 420 Q312 410 327 340" fill="#f472b6" opacity="0.7"/>
  <path d="M170 345 Q256 440 342 345 L320 370 Q256 410 192 370 Z" fill="#ec4899" opacity="0.6"/>

  <!-- Neck -->
  <rect x="241" y="245" width="30" height="35" rx="6" fill="#fcdbb6"/>

  <!-- Long hair back (flowing down) -->
  <path d="M155 210 Q130 280 140 400 Q150 370 165 320 Q170 260 170 220 Z" fill="#1e1b4b"/>
  <path d="M357 210 Q382 280 372 400 Q362 370 347 320 Q342 260 342 220 Z" fill="#1e1b4b"/>
  <!-- Hair inner volume -->
  <path d="M158 215 Q135 285 145 390 Q155 360 168 315 Q172 258 172 222 Z" fill="#312e81"/>
  <path d="M354 215 Q377 285 367 390 Q357 360 344 315 Q340 258 340 222 Z" fill="#312e81"/>

  <!-- Face -->
  <ellipse cx="256" cy="245" rx="82" ry="88" fill="#fcdbb6"/>
  <ellipse cx="256" cy="255" rx="78" ry="78" fill="#fde8c8"/>

  <!-- Hair bangs -->
  <path d="M174 215 Q185 120 256 105 Q327 120 338 215 Q340 225 336 210 Q320 125 256 110 Q192 125 176 210 Q172 225 174 215 Z" fill="#1e1b4b"/>

  <!-- Detailed bangs strands -->
  <path d="M180 200 Q200 155 232 185 Q244 170 256 158 Q268 170 280 185 Q312 155 332 200" fill="none" stroke="#4338ca" stroke-width="2.5" opacity="0.6"/>

  <!-- Side hair left -->
  <path d="M175 215 Q162 280 168 345 Q173 300 180 255 Q178 235 175 215 Z" fill="#312e81"/>
  <path d="M178 218 Q166 280 172 335 Q177 295 182 258 Q180 240 178 218 Z" fill="#4338ca"/>

  <!-- Side hair right -->
  <path d="M337 215 Q350 280 344 345 Q339 300 332 255 Q334 235 337 215 Z" fill="#312e81"/>
  <path d="M334 218 Q346 280 340 335 Q335 295 330 258 Q332 240 334 218 Z" fill="#4338ca"/>

  <!-- Hair ribbons -->
  <path d="M205 168 Q230 150 256 162 Q230 158 205 168 Z" fill="#db2777"/>
  <path d="M307 168 Q282 150 256 162 Q282 158 307 168 Z" fill="#db2777"/>
  <circle cx="256" cy="163" r="6" fill="#ec4899"/>

  <!-- Eyes - Left -->
  <ellipse cx="222" cy="240" rx="19" ry="21" fill="#1e1b4b"/>
  <ellipse cx="222" cy="237" rx="15" ry="15" fill="#312e81"/>
  <ellipse cx="220" cy="233" rx="11" ry="11" fill="#4338ca"/>
  <ellipse cx="218" cy="229" rx="7" ry="8" fill="#1e1b4b"/>
  <!-- Eye highlights -->
  <ellipse cx="213" cy="224" rx="5" ry="4" fill="white" opacity="0.9"/>
  <circle cx="228" cy="237" r="3" fill="white" opacity="0.5"/>
  <ellipse cx="216" cy="217" rx="2" ry="1.5" fill="white" opacity="0.3"/>

  <!-- Eyes - Right -->
  <ellipse cx="290" cy="240" rx="19" ry="21" fill="#1e1b4b"/>
  <ellipse cx="290" cy="237" rx="15" ry="15" fill="#312e81"/>
  <ellipse cx="288" cy="233" rx="11" ry="11" fill="#4338ca"/>
  <ellipse cx="286" cy="229" rx="7" ry="8" fill="#1e1b4b"/>
  <!-- Eye highlights -->
  <ellipse cx="281" cy="224" rx="5" ry="4" fill="white" opacity="0.9"/>
  <circle cx="296" cy="237" r="3" fill="white" opacity="0.5"/>
  <ellipse cx="284" cy="217" rx="2" ry="1.5" fill="white" opacity="0.3"/>

  <!-- Eyebrows -->
  <path d="M202 218 Q213 210 235 215" fill="none" stroke="#1e1b4b" stroke-width="2.5" stroke-linecap="round"/>
  <path d="M277 215 Q299 210 310 218" fill="none" stroke="#1e1b4b" stroke-width="2.5" stroke-linecap="round"/>

  <!-- Blush -->
  <ellipse cx="200" cy="268" rx="20" ry="9" fill="#fca5a5" opacity="0.35"/>
  <ellipse cx="312" cy="268" rx="20" ry="9" fill="#fca5a5" opacity="0.35"/>

  <!-- Nose -->
  <path d="M254 258 Q256 262 258 258" fill="none" stroke="#d4a574" stroke-width="1.5" stroke-linecap="round"/>

  <!-- Mouth (cute smile) -->
  <path d="M242 278 Q256 292 270 278" fill="none" stroke="#be185d" stroke-width="2.5" stroke-linecap="round"/>
  <path d="M248 282 Q256 288 264 282" fill="#f472b6" opacity="0.5"/>

  <!-- Dress/collar hints -->
  <path d="M226 305 Q241 315 256 305 Q271 315 286 305" fill="#db2777" opacity="0.5"/>

  <!-- Sparkle effects -->
  <circle cx="145" cy="130" r="4" fill="white" opacity="0.5"/>
  <circle cx="138" cy="115" r="2" fill="white" opacity="0.3"/>
  <circle cx="155" cy="108" r="1.5" fill="white" opacity="0.4"/>

  <circle cx="375" cy="140" r="3.5" fill="white" opacity="0.5"/>
  <circle cx="368" cy="120" r="2" fill="white" opacity="0.3"/>
  <circle cx="385" cy="128" r="1.5" fill="white" opacity="0.4"/>

  <circle cx="130" cy="320" r="2" fill="white" opacity="0.3"/>
  <circle cx="385" cy="300" r="2.5" fill="white" opacity="0.3"/>
</svg>
